#!OML:ASF E:\emotionWalksFemale\Project 1\Capture day 1\Session 1\Female1.ASF
:FULLY-SPECIFIED
:DEGREES
149
root 8.65973 15.148 34.2538 -177.453 -3.701 -175.963
lowerback 9.97272 0.746858 -0.254757
upperback -2.17516 0.96813 0.0387018
thorax -7.91278 0.484595 0.0232835
lowerneck -3.76075 -4.57437 -8.72273
upperneck 6.27396 -6.89395 13.3242
head 3.23695 -3.32331 5.18973
rclavicle 8.4235e-015 2.46493e-014
rhumerus -34.8987 16.0667 -94.6401
rradius 32.9902
rwrist 16.5466
rhand -2.81041 -53.0689
rfingers 7.12502
rthumb 22.8959 -81.7296
lclavicle 8.4235e-015 2.46493e-014
lhumerus -34.7653 -3.83469 88.5931
lradius 41.5491
lwrist -7.58653
lhand -7.78992 -34.584
lfingers 7.12502
lthumb 18.111 -5.40716
rfemur -2.36379 14.6096 34.9209
rtibia 19.2308
rfoot -18.6378 -30.209
rtoes 22.7715
lfemur -33.7013 -1.19621 -17.7945
ltibia 63.1074
lfoot -16.3519 8.56464
ltoes -23.2794
150
root 8.66153 15.134 34.1567 -177.516 -3.66799 -175.866
lowerback 9.92903 0.760217 -0.199055
upperback -2.15793 0.994679 0.0573926
thorax -7.86853 0.495457 0.00802085
lowerneck -3.71204 -4.57571 -8.89326
upperneck 6.57084 -6.92307 13.3244
head 3.32516 -3.33956 5.21694
rclavicle -4.42296e-015 -6.36111e-015
rhumerus -34.9834 16.2429 -94.7426
rradius 33.3162
rwrist 16.7387
rhand -3.14238 -52.4165
rfingers 7.12502
rthumb 22.5773 -81.1163
lclavicle -4.42296e-015 -6.36111e-015
lhumerus -34.9371 -3.68146 88.4914
lradius 42.0573
lwrist -7.00545
lhand -7.02287 -34.1909
lfingers 7.12502
lthumb 18.8488 -5.08414
rfemur -1.54296 14.7069 35.2071
rtibia 18.5736
rfoot -18.5042 -30.2585
rtoes 22.6484
lfemur -34.0736 -1.66908 -17.6481
ltibia 61.1789
lfoot -16.8439 9.47017
ltoes -21.5796
151
root 8.6616 15.1236 34.0554 -177.666 -3.58352 -175.797
lowerback 9.99205 0.809563 -0.143045
upperback -2.07097 1.06666 0.0463838
thorax -7.81046 0.527583 -0.0472039
lowerneck -3.79965 -4.60146 -9.02283
upperneck 6.73895 -6.96855 13.3821
head 3.40129 -3.35796 5.25156
rclavicle -1.72446e-014 -1.59028e-015
rhumerus -34.999 16.4053 -94.8091
rradius 33.6656
rwrist 17.119
rhand -3.37123 -51.252
rfingers 7.12502
rthumb 22.3577 -79.9783
lclavicle -1.72446e-014 -1.59028e-015
lhumerus -35.024 -3.98773 88.4871
lradius 42.4688
lwrist -6.01609
lhand -6.88647 -33.8801
lfingers 7.12502
lthumb 18.98 -4.78609
rfemur -0.7313 14.7429 35.4784
rtibia 18.1614
rfoot -18.5913 -30.357
rtoes 22.5795
lfemur -34.2684 -2.09561 -17.4978
ltibia 59.1573
lfoot -17.3869 10.5176
ltoes -21.7672
152
root 8.66103 15.1233 33.9484 -177.8 -3.6281 -175.86
lowerback 10.0317 0.803378 -0.09401
upperback -1.97168 1.05608 -0.0603111
thorax -7.72378 0.517431 -0.185325
lowerneck -3.83351 -4.67063 -9.07919
upperneck 6.69767 -7.04766 13.3823
head 3.40614 -3.39599 5.2555
rclavicle 1.80894e-014 4.77083e-015
rhumerus -34.9404 16.8221 -95.0903
rradius 33.9574
rwrist 17.3335
rhand -4.42286 -49.8917
rfingers 7.12502
rthumb 21.3478 -78.7358
lclavicle 1.80894e-014 4.77083e-015
lhumerus -35.0643 -4.21409 88.4159
lradius 42.5714
lwrist -5.34505
lhand -7.23189 -33.7603
lfingers 7.12502
lthumb 18.6478 -4.63408
rfemur 0.300075 14.6994 35.6085
rtibia 17.3583
rfoot -18.5256 -30.3924
rtoes 23.1825
lfemur -34.3983 -2.5639 -17.4779
ltibia 56.988
lfoot -17.753 11.5268
ltoes -24.292
153
root 8.65972 15.1157 33.8488 -177.923 -3.84134 -175.745
lowerback 10.1179 0.736054 0.19454
upperback -1.92908 0.99755 -0.13329
thorax -7.72138 0.473834 -0.416069
lowerneck -3.65733 -4.74531 -9.13795
upperneck 6.54817 -7.14122 13.4016
head 3.34588 -3.45078 5.27019
rclavicle -3.27995e-015 6.36111e-015
rhumerus -34.9345 17.2428 -95.4303
rradius 34.2595
rwrist 17.4409
rhand -5.87728 -48.7358
rfingers 7.12502
rthumb 19.9503 -77.7317
lclavicle -3.27995e-015 6.36111e-015
lhumerus -35.171 -3.94684 88.1997
lradius 42.6336
lwrist -5.27184
lhand -7.30612 -33.7605
lfingers 7.12502
lthumb 18.5764 -4.62745
rfemur 1.23798 14.434 35.9051
rtibia 16.6049
rfoot -18.247 -30.4568
rtoes 23.3193
lfemur -34.5968 -3.34986 -17.1989
ltibia 54.7673
lfoot -17.8214 12.3323
ltoes -24.6395
154
root 8.63898 15.121 33.706 -178.332 -3.01578 -175.555
lowerback 9.73746 1.01265 0.669219
upperback -1.70309 1.41747 -0.217583
thorax -7.2444 0.659046 -0.830001
lowerneck -3.52818 -4.79366 -9.2304
upperneck 6.67109 -7.22721 13.4035
head 3.37356 -3.49931 5.28371
rclavicle -2.85753e-015 1.59028e-015
rhumerus -35.058 17.437 -95.6608
rradius 34.6194
rwrist 17.6859
rhand -6.73832 -47.8599
rfingers 7.12502
rthumb 19.1225 -76.9399
lclavicle -2.85753e-015 1.59028e-015
lhumerus -35.3194 -3.71112 88.0384
lradius 42.627
lwrist -5.30681
lhand -7.59523 -33.944
lfingers 7.12502
lthumb 18.2983 -4.78468
rfemur 2.84579 14.3078 36.1843
rtibia 15.4987
rfoot -17.535 -30.0403
rtoes 21.9524
lfemur -34.0097 -3.64524 -16.8503
ltibia 52.4595
lfoot -18.2483 13.1962
ltoes -22.3058
155
root 8.65749 15.1084 33.645 -177.996 -3.80658 -175.563
lowerback 10.1285 0.711839 0.462118
upperback -1.95448 0.995419 -0.195015
thorax -7.74908 0.458971 -0.632041
lowerneck -3.69015 -4.76693 -9.2419
upperneck 6.96473 -7.20225 13.3131
head 3.48185 -3.47999 5.25412
rclavicle 6.03808e-015 1.98785e-014
rhumerus -35.278 18.0652 -96.0991
rradius 33.7598
rwrist 21.6969
rhand -10.2556 -44.4537
rfingers 7.12502
rthumb 15.7375 -73.8338
lclavicle 6.03808e-015 1.98785e-014
lhumerus -35.492 -3.32722 87.7949
lradius 42.6605
lwrist -5.24053
lhand -8.16061 -33.9902
lfingers 7.12502
lthumb 17.7543 -4.78066
rfemur 3.30545 14.1424 36.3691
rtibia 14.3092
rfoot -17.3164 -30.5212
rtoes 22.7941
lfemur -34.9379 -4.67464 -16.5154
ltibia 50.1556
lfoot -17.8955 13.4188
ltoes -20.6971
156
root 8.63961 15.1122 33.5082 -178.315 -3.2895 -175.429
lowerback 9.87745 0.840154 0.818898
upperback -1.79248 1.20487 -0.257745
thorax -7.41998 0.546329 -0.926941
lowerneck -3.50137 -4.71183 -9.5809
upperneck 6.91924 -7.15153 13.6284
head 3.45338 -3.46425 5.41797
rclavicle 1.33434e-014 -9.54166e-015
rhumerus -35.3356 18.3971 -96.4082
rradius 34.3239
rwrist 21.0135
rhand -9.62604 -44.5764
rfingers 7.12502
rthumb 16.3437 -73.9077
lclavicle 1.33434e-014 -9.54166e-015
lhumerus -35.7988 -2.8807 87.5168
lradius 42.6881
lwrist -5.24083
lhand -8.36227 -34.2438
lfingers 7.12502
lthumb 17.5602 -5.0168
rfemur 4.79415 14.1546 36.6162
rtibia 13.2393
rfoot -17.3249 -30.1041
rtoes 23.5702
lfemur -34.3939 -5.3295 -16.1064
ltibia 47.7392
lfoot -18.5927 14.1669
ltoes -18.4159
157
root 8.63463 15.1104 33.4054 -178.302 -3.38838 -175.32
lowerback 9.78449 0.827404 0.933116
upperback -1.80173 1.20343 -0.232816
thorax -7.3748 0.541771 -0.963067
lowerneck -3.39426 -4.70437 -9.75653
upperneck 6.95656 -7.14995 13.701
head 3.45466 -3.46923 5.473
rclavicle -3.23025e-016 -1.59028e-014
rhumerus -35.565 18.8024 -96.6185
rradius 34.7336
rwrist 21.3211
rhand -9.77299 -44.3036
rfingers 7.12502
rthumb 16.2022 -73.6465
lclavicle -3.23025e-016 -1.59028e-014
lhumerus -35.9227 -2.38154 87.3158
lradius 42.45
lwrist -5.39596
lhand -8.34714 -34.6938
lfingers 7.12502
lthumb 17.5748 -5.46819
rfemur 5.65601 13.9372 36.8293
rtibia 12.3315
rfoot -17 -30.0441
rtoes 24.1184
lfemur -34.4888 -6.3137 -15.6157
ltibia 45.2696
lfoot -18.5262 14.8916
ltoes -18.8759
158
root 8.64595 15.1025 33.3335 -177.998 -4.04829 -175.44
lowerback 10.0343 0.623659 0.703204
upperback -2.00491 0.903681 -0.261658
thorax -7.74539 0.401632 -0.822121
lowerneck -3.49738 -4.73505 -9.63106
upperneck 7.12828 -7.17411 13.4106
head 3.51113 -3.47737 5.3561
rclavicle -5.49143e-015 7.15625e-015
rhumerus -35.6391 19.2285 -96.9212
rradius 35.5368
rwrist 19.8453
rhand -8.72128 -45.2597
rfingers 7.12502
rthumb 17.2147 -74.5172
lclavicle -5.49143e-015 7.15625e-015
lhumerus -36.0544 -2.01079 87.0644
lradius 42.2325
lwrist -5.52207
lhand -8.44364 -34.891
lfingers 7.12502
lthumb 17.4819 -5.65707
rfemur 6.26918 13.72 36.8712
rtibia 11.0345
rfoot -16.2066 -30.4315
rtoes 23.7082
lfemur -35.1204 -7.36583 -15.3127
ltibia 42.7244
lfoot -17.5795 15.3813
ltoes -20.6288
159
root 8.63268 15.1066 33.2025 -178.205 -3.6007 -175.464
lowerback 9.84124 0.75105 0.724173
upperback -1.89304 1.07167 -0.298596
thorax -7.51032 0.483675 -0.895864
lowerneck -3.4042 -4.72295 -9.69025
upperneck 7.07089 -7.13557 13.3022
head 3.47204 -3.46403 5.3367
rclavicle 2.21148e-015 -3.18055e-015
rhumerus -35.8578 19.8519 -97.2754
rradius 35.4166
rwrist 20.9886
rhand -9.98455 -43.8966
rfingers 7.12502
rthumb 15.9985 -73.256
lclavicle 2.21148e-015 -3.18055e-015
lhumerus -36.3174 -1.60739 86.8427
lradius 42.0386
lwrist -5.71728
lhand -8.43385 -35.1254
lfingers 7.12502
lthumb 17.4913 -5.89227
rfemur 8.06891 13.7535 36.9642
rtibia 9.07222
rfoot -15.2067 -30.0988
rtoes 22.2465
lfemur -34.679 -8.38932 -14.8098
ltibia 40.2598
lfoot -17.5997 16.0554
ltoes -18.8284
